<svg xmlns="http://www.w3.org/2000/svg" viewBox="0 0 891.34 1038.81"><defs><style>.cls-1{fill:#fff;}.cls-1,.cls-2,.cls-3{stroke:#000;stroke-miterlimit:10;}.cls-2{fill:none;}</style></defs><g id="Слой_2" data-name="Слой 2"><g id="Слой_1-2" data-name="Слой 1"><path class="cls-1" d="M890.72,885.94a743.77,743.77,0,0,1-41.24-114.43C816.1,648,844.36,624.79,822.86,464.15c-15.68-117.22-38.71-164.4-6.65-222.2,13.72-24.74,29.66-37.23,34.94-69.14,8.33-50.4-15.38-116.33-55.5-128.73-39-12-65.66,35.1-117.82,22.23C656.31,61,651,50.55,628.6,35.71,579.9,3.42,529,2.45,459.62,1.11,379.13-.43,333.56-1.31,288,27.73c-39.32,25-49.72,53.92-83.83,54.55-38,.69-48.78-34.8-81.78-31.61-37.08,3.6-71.74,53.12-76.55,99.47-4.48,43.13,19.62,57.23,30.6,119.75,6.72,38.26,3.27,64.77-1.33,109.1C56.21,560.82,69.9,541,53.8,645.11A1617,1617,0,0,1,.58,875.29c44.12,36.59,205.3,161.21,446.4,163C684.08,1040.05,845.21,921.88,890.72,885.94Z"/><path class="cls-2" d="M266,272.55C279,290.78,277.66,312,277.33,321.78,275.92,364.17,285.6,407,292,424.23c18.4,50,77,71.31,107.78,82.5,20.83,7.58,91.8,33.41,165-1.33,23.28-11,60.44-28.7,75.84-66.53,27.58-67.76-36.4-146.87-2.66-178.3,7.56-7,11.26-3.52,20-12,25.93-25.2,22.59-85.18-6.65-122.41-31.38-40-91.69-52.57-103.78-37.26-10.61,13.43,18.61,44.89,7.91,56.38s-41-19.15-90.41-19.12c-45.67,0-70.65,26.2-85.15,13.3C366,127.2,384.94,100.1,372.47,87.6c-19-19-101,5.65-129.73,65.2-14.92,30.95-19.36,79.46,2.66,101.12C252.05,260.46,258.59,262.08,266,272.55Z"/></g><g id="Слой_2-2" data-name="Слой 2"><path class="cls-3" d="M471,215.57c-9.3.82-30,2.9-52,16.4-13.84,8.51-30.64,18.75-36.59,38.58-7.65,25.48,4.36,55.05,23.95,67.86,22.15,14.48,43.34.57,55.88,15.3,10.83,12.73,6.71,35.22,0,48.57-3.08,6.13-5.88,8.68-43.91,35.26-27.87,19.48-35.62,24.58-47.23,23.95-14.54-.79-23.85-10-25.28-8-1.8,2.49,10.06,21,26.61,23.28,6.4.89,13.46-.65,54.55-30.6,19-13.84,21.65-16.55,29.94-19.3,5.08-1.68,24.1-7.29,43.91.67,5.28,2.12,10.24,5.88,20,13.31,29,22.21,30.55,29.15,41.91,31.93,20.4,5,42.19-10.88,41.25-14.64-.77-3-16.07,3.1-35.93-4-11.58-4.13-12.93-8.55-29.27-19.29-25.38-16.68-31.27-12-41.25-22.62-13.36-14.19-20.12-40.95-10-55.89,11.68-17.19,39.39-4.76,61.21-21.28,20.48-15.51,31.86-48,22-73.85C563.1,241.39,545.09,232,533.47,226,507.79,212.61,483.35,214.47,471,215.57Z"/></g><g id="Слой_3" data-name="Слой 3"><path class="cls-3" d="M583.36,159.45c8.82,9.58,21.18,10.12,33.27,10.65,9.22.4,15.56.67,18.63-3.33,5.09-6.65-1.52-21.62-10.65-29.94-14.77-13.45-42-14.76-48.57-4C571.46,140.31,577.24,152.8,583.36,159.45Z"/><path class="cls-3" d="M325.4,172.77c-8.82,9.58-21.17,10.12-33.26,10.64-9.23.4-15.56.68-18.63-3.33-5.09-6.64,1.51-21.62,10.65-29.93,14.76-13.45,41.94-14.77,48.56-4C337.31,153.63,331.53,166.12,325.4,172.77Z"/></g></g></svg>